<svg width="72" height="73" viewBox="0 0 72 73" fill="none" xmlns="http://www.w3.org/2000/svg"><g filter="url(#a)"><path d="M36 36.989h24l-24 24.01z" fill="url(#b)"/><path d="M36 36.989V12.977L12 36.99z" fill="url(#c)"/><path d="M36 36.989V61L12 36.989z" fill="url(#d)"/><path d="M36 36.989h24L36 12.977z" fill="url(#e)"/><path transform="scale(-.99976 1.00024)rotate(-45 20.633 76.445)" fill="url(#f)" d="M0 0h16.975v16.975H0z"/><path fill-rule="evenodd" clip-rule="evenodd" d="M48.355 36.989 36 24.628l-12.355 12.36L36 49.35zm-.71 0L36 48.639 24.355 36.99 36 25.338z" fill="url(#g)"/><path d="M47.074 47.865c6.525-3.389 9.412-8.283 10.918-10.793h1.882l-2.51 2.51-18.071 18.197v-.502c1.907-4.92-1.172-7.865-2.887-8.66l2.26-2.258c-.084 1.715 1.83 4.921 8.408 1.506" fill="#93E8FF"/><path opacity=".2" fill-rule="evenodd" clip-rule="evenodd" d="M38.774 41.481a15.76 15.76 0 0 1-10.65 4.125c-6.719 0-12.458-4.19-14.75-10.1l20.463-20.462c5.91 2.291 10.1 8.03 10.1 14.75 0 4.102-1.563 7.84-4.125 10.65z" fill="#74E4FF"/><path d="m32.39 28.287 3.264-3.263c-6.406.986-2.48-7.38.225-11.922L25.363 23.518 14.947 34.06l9.788-6.024c9.739-5.923 9.12-2.342 7.656.251" fill="url(#h)"/><g filter="url(#i)"><path d="m35.904 20.005-.276 4.743-4.743.276 4.743.277.276 4.743.277-4.743 4.743-.277-4.743-.276z" fill="#fff"/></g><path d="m35.904 20.005-.276 4.743-4.743.276 4.743.277.276 4.743.277-4.743 4.743-.277-4.743-.276z" fill="#fff"/></g><defs><linearGradient id="b" x1="37.16" y1="44.351" x2="44.008" y2="52.178" gradientUnits="userSpaceOnUse"><stop stop-color="#65B5FF"/><stop offset="1" stop-color="#64E4FF"/></linearGradient><linearGradient id="c" x1="5.033" y1="43.096" x2="15.654" y2="12.001" gradientUnits="userSpaceOnUse"><stop offset=".146" stop-color="#8EECFF"/><stop offset="1" stop-color="#A8EFFF"/></linearGradient><linearGradient id="d" x1="13.89" y1="35.157" x2="22.091" y2="67.975" gradientUnits="userSpaceOnUse"><stop stop-color="#2E3DB0"/><stop offset="1" stop-color="#55C1F2"/></linearGradient><linearGradient id="e" x1="31.663" y1="12.638" x2="60.841" y2="19.079" gradientUnits="userSpaceOnUse"><stop stop-color="#2354C0"/><stop offset="1" stop-color="#A3E9FF"/></linearGradient><linearGradient id="f" x1="-3.662" y1="6.925" x2="21.047" y2="5.789" gradientUnits="userSpaceOnUse"><stop offset=".02" stop-color="#2A67C4"/><stop offset=".349" stop-color="#2E3AB0"/><stop offset="1" stop-color="#79E8FF"/></linearGradient><linearGradient id="g" x1="35.905" y1="24.523" x2="35.894" y2="47.488" gradientUnits="userSpaceOnUse"><stop stop-color="#D7F8FF"/><stop offset=".177" stop-color="#9EEDFF"/><stop offset=".432" stop-color="#66E3FF"/><stop offset=".686" stop-color="#fff" stop-opacity="0"/></linearGradient><linearGradient id="h" x1="26.116" y1="26.405" x2="35.904" y2="24.899" gradientUnits="userSpaceOnUse"><stop stop-color="#D3F6FF"/><stop offset=".603" stop-color="#D3F6FF"/><stop offset="1" stop-color="#fff"/></linearGradient><filter id="a" x="0" y=".851" width="72" height="72.149" filterUnits="userSpaceOnUse" color-interpolation-filters="sRGB"><feFlood flood-opacity="0" result="BackgroundImageFix"/><feColorMatrix in="SourceAlpha" values="0 0 0 0 0 0 0 0 0 0 0 0 0 0 0 0 0 0 127 0" result="hardAlpha"/><feOffset/><feGaussianBlur stdDeviation="6"/><feComposite in2="hardAlpha" operator="out"/><feColorMatrix values="0 0 0 0 0.164706 0 0 0 0 0.345098 0 0 0 0 0.776471 0 0 0 1 0"/><feBlend in2="BackgroundImageFix" result="effect1_dropShadow_300_4092"/><feBlend in="SourceGraphic" in2="effect1_dropShadow_300_4092" result="shape"/></filter><filter id="i" x="29.406" y="18.526" width="12.997" height="12.997" filterUnits="userSpaceOnUse" color-interpolation-filters="sRGB"><feFlood flood-opacity="0" result="BackgroundImageFix"/><feBlend in="SourceGraphic" in2="BackgroundImageFix" result="shape"/><feGaussianBlur stdDeviation=".739" result="effect1_foregroundBlur_300_4092"/></filter></defs></svg>