<svg width="82" height="89" viewBox="0 0 82 89" fill="none" xmlns="http://www.w3.org/2000/svg"><g filter="url(#a)"><path d="m41 20.851-10.38 6.022-10.405 5.978.026 12-.026 12L30.62 62.83 41 68.851l10.38-6.022 10.405-5.978-.026-12 .026-12-10.405-5.978z" fill="url(#b)"/><path d="M41 44.951v-24l-7.3 11.3-13.5.6z" fill="url(#c)"/><path d="m41 44.851-20.8 12 6.2-12-6.2-12z" fill="url(#d)"/><path d="M41 44.851v24l-7.3-11.4-13.5-.6z" fill="url(#e)"/><path d="M41 44.951v-24l7.3 11.3 13.5.6z" fill="url(#f)"/><path d="m41 44.851 20.8 12-6.2-12 6.2-12z" fill="url(#g)"/><path d="M41 44.851v24l7.3-11.4 13.5-.6z" fill="url(#h)"/><path d="m48.246 32.21-7.215 1.843-7.193-1.757-2.097 7.195-5.183 5.413 5.118 5.352 2.012 7.17 7.215-1.843 7.193 1.756 2.097-7.194 5.183-5.414-5.118-5.351z" fill="url(#i)" style="mix-blend-mode:hard-light" opacity=".3"/><path d="m48.231 32.258-7.256 7.025-7.257-7.025 2.456 9.797-9.712 2.772 9.712 2.772-2.456 9.797 7.257-7.026 7.256 7.026-2.456-9.797 9.713-2.772-9.712-2.772z" fill="url(#j)" style="mix-blend-mode:hard-light" opacity=".6"/><path d="m41 34.051-4.67 2.71-4.683 2.69.011 5.4-.011 5.4 4.682 2.69L41 55.651l4.67-2.71 4.683-2.69-.011-5.4.011-5.4-4.682-2.69z" fill="url(#k)" style="mix-blend-mode:hard-light"/><path d="m47.2 39.851-.606.35-.606.35v1.4l.606.35.606.35.606-.35.606-.35v-1.4l-.606-.35z" fill="#F1F8FA" style="mix-blend-mode:hard-light" opacity=".8"/></g><defs><linearGradient id="b" x1="57.342" y1="28.416" x2="27.926" y2="66.05" gradientUnits="userSpaceOnUse"><stop stop-color="#466CC6"/><stop offset="1" stop-color="#75D2F4"/></linearGradient><linearGradient id="c" x1="42.1" y1="28.451" x2="26.298" y2="35.838" gradientUnits="userSpaceOnUse"><stop offset=".153" stop-color="#2251BD"/><stop offset="1" stop-color="#3383E8"/></linearGradient><linearGradient id="d" x1="28.6" y1="30.351" x2="22.475" y2="54.318" gradientUnits="userSpaceOnUse"><stop offset=".153" stop-color="#2E35AC"/><stop offset=".721" stop-color="#59A5EC"/></linearGradient><linearGradient id="e" x1="36.202" y1="56.114" x2="18.73" y2="57.092" gradientUnits="userSpaceOnUse"><stop offset=".153" stop-color="#5DB9ED"/><stop offset="1" stop-color="#579BEB"/></linearGradient><linearGradient id="f" x1="58.5" y1="38.151" x2="39.221" y2="29.978" gradientUnits="userSpaceOnUse"><stop offset=".153" stop-color="#3A79F8"/><stop offset="1" stop-color="#3C57F7"/></linearGradient><linearGradient id="g" x1="51.4" y1="32.851" x2="57.743" y2="58.515" gradientUnits="userSpaceOnUse"><stop offset=".031" stop-color="#2E35AC"/><stop offset=".901" stop-color="#3061C2"/></linearGradient><linearGradient id="h" x1="51.4" y1="46.951" x2="41.596" y2="65.412" gradientUnits="userSpaceOnUse"><stop offset=".153" stop-color="#2E35AC"/><stop offset=".827" stop-color="#3380E5"/></linearGradient><linearGradient id="i" x1="48.113" y1="47.91" x2="26.474" y2="37.189" gradientUnits="userSpaceOnUse"><stop offset=".153" stop-color="#5DB9ED"/><stop offset="1" stop-color="#579BEB"/></linearGradient><linearGradient id="j" x1="54.503" y1="41.161" x2="27.718" y2="51.975" gradientUnits="userSpaceOnUse"><stop stop-color="#2A58C6"/><stop offset="1" stop-color="#4FF4FF"/></linearGradient><linearGradient id="k" x1="47.369" y1="37.455" x2="33.799" y2="52.49" gradientUnits="userSpaceOnUse"><stop stop-color="#166CFD"/><stop offset="1" stop-color="#89DFFF"/></linearGradient><filter id="a" x="-3" y=".851" width="88" height="88" filterUnits="userSpaceOnUse" color-interpolation-filters="sRGB"><feFlood flood-opacity="0" result="BackgroundImageFix"/><feColorMatrix in="SourceAlpha" values="0 0 0 0 0 0 0 0 0 0 0 0 0 0 0 0 0 0 127 0" result="hardAlpha"/><feOffset/><feGaussianBlur stdDeviation="10"/><feComposite in2="hardAlpha" operator="out"/><feColorMatrix values="0 0 0 0 0.164706 0 0 0 0 0.345098 0 0 0 0 0.776471 0 0 0 1 0"/><feBlend in2="BackgroundImageFix" result="effect1_dropShadow_300_4146"/><feBlend in="SourceGraphic" in2="effect1_dropShadow_300_4146" result="shape"/></filter></defs></svg>