<svg width="72" height="72" viewBox="0 0 72 72" fill="none" xmlns="http://www.w3.org/2000/svg"><g filter="url(#a)"><path d="M35.925 35.925H59.85L35.925 59.85z" fill="url(#b)"/><path d="M35.925 35.926V12L12 35.926z" fill="url(#c)"/><path d="M35.925 35.925V59.85L12 35.925z" fill="url(#d)"/><path d="M35.925 36.224V12.3L59.85 36.224z" fill="url(#e)"/><path transform="scale(-1 1)rotate(-45 19.422 75.769)" fill="url(#f)" d="M0 0h16.918v16.918H0z"/><g filter="url(#g)"><path stroke="#fff" stroke-width=".188" d="M47.888 35.926 35.925 23.963 23.963 35.926l11.962 11.962z"/></g></g><defs><linearGradient id="b" x1="31.602" y1="60.188" x2="67.078" y2="51.595" gradientUnits="userSpaceOnUse"><stop stop-color="#F9F9F9"/><stop offset="1" stop-color="#D4D6DC"/></linearGradient><linearGradient id="c" x1="11.662" y1="40.249" x2="20.256" y2="4.773" gradientUnits="userSpaceOnUse"><stop stop-color="#E9EAED"/><stop offset="1" stop-color="#C5C7CF"/></linearGradient><linearGradient id="d" x1="13.885" y1="34.1" x2="22.052" y2="66.802" gradientUnits="userSpaceOnUse"><stop stop-color="#C5C7D0"/><stop offset="1" stop-color="#CFD0D7"/></linearGradient><linearGradient id="e" x1="57.966" y1="38.05" x2="49.799" y2="5.348" gradientUnits="userSpaceOnUse"><stop stop-color="#E6E7EA"/><stop offset="1" stop-color="#F3F3F4"/></linearGradient><filter id="a" x="0" y="0" width="72" height="72" filterUnits="userSpaceOnUse" color-interpolation-filters="sRGB"><feFlood flood-opacity="0" result="BackgroundImageFix"/><feColorMatrix in="SourceAlpha" values="0 0 0 0 0 0 0 0 0 0 0 0 0 0 0 0 0 0 127 0" result="hardAlpha"/><feOffset/><feGaussianBlur stdDeviation="6"/><feComposite in2="hardAlpha" operator="out"/><feColorMatrix values="0 0 0 0 1 0 0 0 0 1 0 0 0 0 1 0 0 0 0.12 0"/><feBlend in2="BackgroundImageFix" result="effect1_dropShadow_300_4126"/><feBlend in="SourceGraphic" in2="effect1_dropShadow_300_4126" result="shape"/></filter><filter id="g" x="22.576" y="22.576" width="26.699" height="26.699" filterUnits="userSpaceOnUse" color-interpolation-filters="sRGB"><feFlood flood-opacity="0" result="BackgroundImageFix"/><feBlend in="SourceGraphic" in2="BackgroundImageFix" result="shape"/><feGaussianBlur stdDeviation=".627" result="effect1_foregroundBlur_300_4126"/></filter><radialGradient id="f" cx="0" cy="0" r="1" gradientUnits="userSpaceOnUse" gradientTransform="rotate(67.922 .612 7.189)scale(11.3577 13.3978)"><stop stop-color="#D7D8DE"/><stop offset="1" stop-color="#F3F3F4"/></radialGradient></defs></svg>