<svg width="120" height="120" viewBox="0 0 120 120" fill="none" xmlns="http://www.w3.org/2000/svg"><g clip-path="url(#a)"><path d="M47.199 78.677c.367-.066 4.721 1.321 6.854 2.022l2.15 1.172c-1.975.436-6.276 1.21-7.694.815-1.416-.397-3.758-2.417-4.753-3.377z" fill="url(#b)"/><path d="M11.895 37.303c-1.463-1.221-2.079-3.493-3.075-5.993.258-.287 3.315.285 8.43 8.067l1.273 2.674c1.092 1.44-.658.27-2.153-.425-2.727-2.408-2.648-2.793-4.475-4.323" fill="url(#c)"/><path d="M14.968 27.646c.186-.629.977-3.31 3.467-6.225.12.575.464 2.226-.335 6.397-.293.5-2.076 2.616-3.349 3.372-.051.368-.17-.192-.333-.461-.38-1.57.362-2.452.55-3.083" fill="url(#d)"/><path fill-rule="evenodd" clip-rule="evenodd" d="M27.58 59.307C17.647 45.873 13.315 30.42 11.998 20.262l.382-.07c1.296 10.007 6.427 25.197 16.222 38.447 9.785 13.237 24.66 24.425 46.383 26.372l-.12 1.164C52.694 84.189 37.519 72.754 27.58 59.307" fill="url(#e)"/><path d="M11.572 24.692 5 20.979l.314 1.508c1.116 3.447 3.634 4.102 5.414 6.161 1.423 1.648 3.2 2.146 3.675 2.01l-.768-2.543z" fill="url(#f)"/><path fill-rule="evenodd" clip-rule="evenodd" d="M5.116 21.043c2.237 2.384 4.963 5.22 5.927 5.684.877.424 2.193 2.094 3.283 3.674l.077.257c-.475.136-2.252-.362-3.675-2.01-.6-.695-1.285-1.23-1.973-1.766-1.348-1.054-2.702-2.114-3.441-4.395L5 20.979z" fill="url(#g)"/><path d="M35.733 59.094c-.29-.782-3.014-4.813-4.342-6.732l-.338.658c-.027 5.595 2.104 7.814 3.271 9.984s1.573 6.792 2.239 5.03c.665-1.76-.466-7.964-.83-8.94" fill="url(#h)"/><path fill-rule="evenodd" clip-rule="evenodd" d="M31.579 52.633c.781 2.63 2.027 6.446 3.045 8.377.952 1.81 1.676 4.75 1.981 6.897l-.042.128c-.388 1.021-.686-.106-1.098-1.657-.296-1.121-.653-2.463-1.143-3.374q-.336-.61-.708-1.201c-1.157-1.881-2.583-4.198-2.56-8.783l.337-.658z" fill="url(#i)"/><path d="M20.352 50.063c-1.428-.753-4.482-1.688-5.832-2.061.848 1.782 1.856 2.045 3.344 4.23 1.191 1.75 5.185 2.652 7.033 2.884-.921-1.37-3.117-4.302-4.545-5.053" fill="url(#j)"/><path fill-rule="evenodd" clip-rule="evenodd" d="M20.207 49.99q.074.035.143.073c1.428.753 3.626 3.683 4.547 5.054a20 20 0 0 1-2.552-.506c-1.078-1.508-1.766-3.302-2.14-4.623" fill="url(#k)"/><path d="M11.357 37.776c-.816-.567-3.281-1.137-4.41-1.353 1.073 1.591 1.846 3.91 4.205 6.084.976.902 5.936 2.44 8.41 3.006l-.715-1.137c-3.02-1.532-6.468-5.892-7.49-6.6" fill="url(#l)"/><path d="M22.046 40.288c.427-2.225-1.126-5.159-1.957-6.348-.69 3.927-1.962 4.31-1.035 8.761l1.092 2.184c.455-.605 1.474-2.371 1.9-4.595" fill="url(#m)"/><path d="M32.69 65.836c-3.771-1.634-8.875-.284-10.811.717 7.02 2.812 6.891.672 9.58 1 2.15.262 3.476.033 3.64-.071z" fill="url(#n)"/><path d="M25.54 61.634c-.868-.2-6.484-.501-9.184-.626 4.268 2.57 7.547 4.205 9.64 4.342 1.676.11 6.247 1.265 8.323 1.827a11 11 0 0 0-1.445-1.598c-.776-.677-6.25-3.698-7.333-3.945" fill="url(#o)"/><path d="M43.362 65.594c.046 2.972 1.715 7.088 2.542 8.774l2.77 2.623c-.231-1.995-.864-6.281-1.555-7.466-.693-1.185-2.793-3.115-3.759-3.931" fill="url(#p)"/><path d="M36.336 70.76c-.72-.406-3.174-.488-4.309-.478.708 1.113 2.74 3.627 5.204 4.784 2.467 1.158 5.897.98 7.304.746a1.2 1.2 0 0 0-.389-.719 1.34 1.34 0 0 0-.783-.333c-1.053-.104-6.128-3.495-7.027-4" fill="url(#q)"/><path fill-rule="evenodd" clip-rule="evenodd" d="M44.32 75.846c-4.115-.985-9.296-3.723-12.243-5.487l-.051-.077c1.138-.01 3.59.072 4.31.477.225.127.711.432 1.33.823 1.855 1.172 4.908 3.1 5.7 3.178.293.025.568.143.781.334s.35.445.389.719z" fill="url(#r)"/><path d="M53.554 85.564c.384-.609 2.526-2.376 3.55-3.187l-.35-.531c-.552.15-2.077.56-3.766.99-1.69.428-2.735 2.885-3.046 4.06 1.046-.192 3.23-.727 3.612-1.332" fill="url(#s)"/><path d="M8.003 13.274C7.786 12.239 9.583 8.662 10.507 7l2.213 4.14c.149.718.36 2.574.01 4.247s-.508 4.291-.344 5.207l-.46.083C9.872 18.445 8.27 14.566 8 13.274" fill="url(#t)"/><path fill-rule="evenodd" clip-rule="evenodd" d="M12.172 20.335c-1.04-2.172-1.597-9.124-1.757-13.167L10.507 7l2.213 4.14c.148.72.36 2.574.01 4.247s-.418 4.35-.254 5.265z" fill="url(#u)"/><g filter="url(#v)"><path d="M13.162 24.924c-.01-.355-.092-3.71 2.543-7.248.525.748 1.243 3.244 1.455 4.875.213 1.63-1.7 5.653-2.875 7.757-.515-2.34-1.11-5.028-1.123-5.384" fill="url(#w)"/><path fill-rule="evenodd" clip-rule="evenodd" d="M15.804 17.833a2 2 0 0 0-.101-.157c-2.633 3.538-2.55 6.893-2.54 7.248.01.327.513 2.618.994 4.804l.128.58q.133-.237.277-.506c.689-3.491 1.088-8.855 1.242-11.97" fill="url(#x)"/></g><path fill-rule="evenodd" clip-rule="evenodd" d="M8.858 31.407a8.4 8.4 0 0 1 1.119.884c.99.937 8.287 9.287 8.65 10.264q.034.095.048.171c-.25-.054-.727-.301-1.268-.58a28 28 0 0 0-1.039-.52 33 33 0 0 1-2.644-2.568 18 18 0 0 0-1.83-1.754c-1.345-1.341-1.86-2.742-2.51-4.504a58 58 0 0 0-.526-1.393" fill="url(#y)"/><path fill-rule="evenodd" clip-rule="evenodd" d="M19.328 45.143c-2.098-.569-4.576-1.761-7.038-4.035-2.699-2.491-4.292-3.804-5.185-4.44l-.158-.245c1.129.214 3.594.786 4.41 1.353.328.224.903.826 1.633 1.588 1.553 1.619 3.805 3.971 5.857 5.012z" fill="url(#z)"/><path fill-rule="evenodd" clip-rule="evenodd" d="M20.084 33.967a21 21 0 0 1-.767 2.965c-.517 1.625-.886 2.78-.263 5.768l1.092 2.184.065-.09c.744-3.33.278-8.312-.127-10.827" fill="url(#A)"/><g filter="url(#B)"><path d="M20.88 47.28c.29-.152.209-.208.968-.698 2.76-1.785 3.612-6.456 2.918-9.255l-2.257 2.127c-3.305 3.35-2.538 6.504-1.626 7.826" fill="url(#C)"/><path fill-rule="evenodd" clip-rule="evenodd" d="m24.795 37.453-.03-.127-2.256 2.13c-3.305 3.348-2.538 6.5-1.626 7.825l.03-.016c.229-2.514 2.544-7.332 3.882-9.812" fill="url(#D)"/></g><g filter="url(#E)"><path d="M19.451 52.616c-.843-.085-5.988.104-8.454.208 5.557 4.945 9.49 3.998 10.91 4.335 2.66.182 4.794.512 5.333.437l-1.126-1.21c-1.87-1.22-5.818-3.687-6.663-3.77" fill="url(#F)"/><path fill-rule="evenodd" clip-rule="evenodd" d="M11.084 52.9c4.438 3.91 7.832 4.067 9.722 4.154.456.02.826.038 1.1.102 1.212.085 2.316.199 3.208.29.906.095 1.595.165 1.962.16C24.13 55.47 15.824 53.69 11.084 52.9" fill="url(#G)"/></g><path fill-rule="evenodd" clip-rule="evenodd" d="M33.375 66.06c-3.927-1.335-11.998-3.655-16.988-5.051 2.713.126 8.288.426 9.152.624 1.085.248 6.558 3.268 7.335 3.946.17.15.34.315.501.482" fill="url(#H)"/><g filter="url(#I)"><path d="M32.024 64.17c-2.385-2.306-3.144-5.188-3.226-6.34l1.508 1.14c4.76 2.108 5.839 6.927 5.782 9.075a298 298 0 0 1-4.064-3.875" fill="url(#J)"/><path fill-rule="evenodd" clip-rule="evenodd" d="M28.801 57.86c.717 1.753 2.599 4.403 6.79 8.19q.298 1.095.499 1.905l-.002.09a311 311 0 0 1-4.064-3.875c-2.365-2.287-3.13-5.14-3.223-6.31" fill="url(#K)"/></g><path fill-rule="evenodd" clip-rule="evenodd" d="M35.015 67.516c-3.247-1.347-9.705-1.214-13.063-.936 4.718 1.88 6.177 1.506 7.466 1.17.61-.156 1.181-.303 2.041-.198 1.937.236 3.202.074 3.556-.037" fill="url(#L)"/><path d="M12.096 20.35c.297 3.074 1.856 11.807 5.362 20.407 2.517 6.17 3.263 8.643 10.111 18.418 1.621 2.31 6.081 7.918 10.967 11.85 2.846 2.734 11.267 9.025 22.184 12.33 3.14.962 10.345 2.84 14.05 2.639" stroke="#FADA81" stroke-width="1.117"/><g filter="url(#M)"><path d="M40.25 70.488c-.922-1.844-1.995-2.84-2.11-3.265 3.952 1.436 7.03 3.63 7.67 4.035.512.322 1.826 4.062 2.42 5.89l-6.068-3.583c-1.505-1.885-.824-.892-1.912-3.078" fill="url(#N)"/><path fill-rule="evenodd" clip-rule="evenodd" d="M38.557 67.378a14 14 0 0 0-.416-.155c.044.17.242.427.52.794.423.556 1.034 1.36 1.589 2.47.55 1.105.648 1.398.805 1.66.154.257.362.486 1.107 1.418l5.924 3.499c-1.399-2.854-6.533-7.33-9.529-9.686" fill="url(#O)"/></g><g filter="url(#P)"><path d="M37.14 75.006c-1.893-.248-4.258 1.03-5.203 1.7.12.575 4.057 1.69 6.012 2.178.424-.128 1.666-.47 3.244-.82 1.58-.349 2.979-1.713 3.48-2.353-1.721-.132-5.637-.457-7.532-.705" fill="url(#Q)"/><path fill-rule="evenodd" clip-rule="evenodd" d="M44.303 76.135a6 6 0 0 0 .372-.424c-1.723-.132-5.639-.457-7.534-.705s-4.259 1.03-5.204 1.7q.005.025.017.049c1.883.472 5.79.679 12.35-.62" fill="url(#R)"/></g><g filter="url(#S)"><path d="M52.159 80.378c-1.617.474-4.724 3.375-6.076 4.766 4.568.577 4.145-.314 6.578-.834 1.945-.416 2.552-2.232 2.612-3.089-.364-.48-1.498-1.319-3.114-.844" fill="url(#T)"/><path fill-rule="evenodd" clip-rule="evenodd" d="M55.159 81.089c-4.651 1.249-7.644 2.977-9.04 4.059 3.146.395 3.907.088 4.892-.31a9 9 0 0 1 1.65-.53q.244-.048.46-.13.447-.25.876-.495c.906-.73 1.233-1.845 1.276-2.461a2 2 0 0 0-.115-.133" fill="url(#U)"/></g><path d="M72.08 78.677c-.368-.066-4.722 1.321-6.855 2.022l-2.15 1.172c1.974.436 6.277 1.21 7.695.815 1.416-.397 3.759-2.417 4.752-3.377z" fill="url(#V)"/><path d="M107.385 37.303c1.46-1.221 2.076-3.493 3.074-5.993-.259-.287-3.316.285-8.431 8.067l-1.272 2.674c-1.095 1.44.659.27 2.154-.425 2.724-2.408 2.646-2.793 4.473-4.323" fill="url(#W)"/><path d="M104.312 27.646c-.188-.629-.979-3.31-3.469-6.225-.119.575-.464 2.226.336 6.397.292.5 2.075 2.616 3.348 3.372.051.368.171-.192.334-.461.379-1.57-.363-2.452-.549-3.083" fill="url(#X)"/><path fill-rule="evenodd" clip-rule="evenodd" d="M91.7 59.307c9.93-13.434 14.263-28.886 15.581-39.045l-.384-.07c-1.297 10.007-6.428 25.197-16.223 38.447-9.785 13.237-24.658 24.425-46.38 26.372l.117 1.164C66.585 84.189 81.759 72.754 91.7 59.307" fill="url(#Y)"/><path d="m107.707 24.692 6.571-3.713-.314 1.508c-1.116 3.447-3.635 4.102-5.414 6.161-1.423 1.648-3.199 2.146-3.675 2.01l.768-2.543z" fill="url(#Z)"/><path fill-rule="evenodd" clip-rule="evenodd" d="M114.163 21.043c-2.238 2.384-4.965 5.22-5.927 5.684-.879.424-2.193 2.094-3.283 3.674l-.078.257c.476.136 2.252-.362 3.675-2.01.6-.695 1.286-1.23 1.972-1.766 1.348-1.054 2.703-2.114 3.442-4.395l.314-1.508z" fill="url(#aa)"/><path d="M83.546 59.094c.29-.782 3.015-4.813 4.34-6.732l.34.658c.025 5.595-2.104 7.814-3.27 9.984-1.168 2.17-1.576 6.792-2.241 5.03-.666-1.76.467-7.964.83-8.94" fill="url(#ab)"/><path fill-rule="evenodd" clip-rule="evenodd" d="M87.7 52.633c-.782 2.63-2.026 6.446-3.045 8.377-.954 1.81-1.677 4.75-1.982 6.897l.042.128c.388 1.021.686-.106 1.097-1.657.297-1.121.654-2.463 1.144-3.374.21-.392.452-.785.708-1.201 1.158-1.881 2.583-4.198 2.562-8.783l-.341-.658z" fill="url(#ac)"/><path d="M98.927 50.063c1.428-.753 4.481-1.688 5.83-2.061-.848 1.782-1.856 2.045-3.344 4.23-1.189 1.75-5.185 2.652-7.033 2.884.922-1.37 3.121-4.302 4.547-5.053" fill="url(#ad)"/><path fill-rule="evenodd" clip-rule="evenodd" d="M99.072 49.99a2 2 0 0 0-.145.073c-1.428.753-3.625 3.683-4.547 5.054a20 20 0 0 0 2.553-.506c1.078-1.508 1.766-3.3 2.14-4.621" fill="url(#ae)"/><path d="M107.921 37.776c.815-.567 3.281-1.137 4.41-1.353-1.071 1.591-1.846 3.91-4.206 6.084-.976.902-5.934 2.44-8.408 3.006l.713-1.137c3.02-1.532 6.469-5.892 7.491-6.6" fill="url(#af)"/><path d="M97.233 40.288c-.427-2.225 1.126-5.159 1.957-6.348.69 3.927 1.962 4.31 1.034 8.761l-1.092 2.184c-.456-.605-1.474-2.371-1.9-4.595" fill="url(#ag)"/><path d="M86.586 65.836c3.773-1.634 8.878-.284 10.813.717-7.02 2.812-6.892.672-9.58 1-2.15.262-3.475.033-3.638-.071z" fill="url(#ah)"/><path d="M93.739 61.634c.867-.2 6.483-.501 9.182-.626-4.267 2.57-7.546 4.205-9.64 4.342-1.675.11-6.246 1.265-8.322 1.827.221-.306.824-1.057 1.445-1.598.776-.677 6.25-3.698 7.335-3.945" fill="url(#ai)"/><path d="M75.918 65.594c-.048 2.972-1.715 7.088-2.543 8.774l-2.77 2.623c.23-1.995.863-6.281 1.554-7.466s2.793-3.115 3.759-3.931" fill="url(#aj)"/><path d="M82.942 70.76c.72-.406 3.173-.488 4.308-.478-.708 1.113-2.74 3.627-5.204 4.784-2.465 1.158-5.897.98-7.304.746a1.2 1.2 0 0 1 .39-.719c.212-.19.488-.308.782-.333 1.055-.104 6.129-3.497 7.03-4.003" fill="url(#ak)"/><path fill-rule="evenodd" clip-rule="evenodd" d="M74.959 75.846c4.115-.985 9.295-3.723 12.242-5.487l.05-.077c-1.136-.01-3.59.072-4.31.477a47 47 0 0 0-1.328.823c-1.857 1.172-4.909 3.1-5.699 3.178-.294.025-.57.142-.783.333s-.35.445-.39.72z" fill="url(#al)"/><path d="M65.722 85.564c-.383-.609-2.522-2.376-3.546-3.187l.35-.531c.55.15 2.074.56 3.764.99 1.689.428 2.735 2.885 3.045 4.06-1.044-.192-3.231-.727-3.613-1.332" fill="url(#am)"/><path d="M111.275 13.274c.217-1.035-1.58-4.612-2.505-6.274l-2.211 4.14c-.15.718-.362 2.574-.012 4.247s.51 4.291.345 5.207l.46.083c2.053-2.232 3.653-6.111 3.923-7.403" fill="url(#an)"/><path fill-rule="evenodd" clip-rule="evenodd" d="M107.105 20.335c1.041-2.172 1.599-9.124 1.757-13.167L108.77 7l-2.211 4.14c-.15.72-.362 2.574-.012 4.247s.418 4.35.254 5.265z" fill="url(#ao)"/><g filter="url(#ap)"><path d="M106.115 24.924c.011-.355.092-3.71-2.542-7.248-.525.748-1.244 3.244-1.455 4.875-.214 1.63 1.699 5.653 2.876 7.757.512-2.34 1.109-5.028 1.121-5.384" fill="url(#aq)"/><path fill-rule="evenodd" clip-rule="evenodd" d="M103.476 17.833q.051-.09.099-.157c2.633 3.538 2.551 6.893 2.541 7.248-.011.327-.514 2.618-.995 4.804l-.128.58-.277-.506c-.689-3.491-1.088-8.855-1.242-11.97" fill="url(#ar)"/></g><path fill-rule="evenodd" clip-rule="evenodd" d="M110.42 31.407a8.4 8.4 0 0 0-1.117.884c-.99.937-8.289 9.287-8.651 10.264q-.03.084-.049.171c.251-.054.727-.301 1.267-.58.335-.172.693-.358 1.04-.52a33 33 0 0 0 2.644-2.568c.519-.554.956-1.023 1.829-1.754 1.346-1.341 1.862-2.742 2.512-4.504.162-.44.332-.903.525-1.393" fill="url(#as)"/><path fill-rule="evenodd" clip-rule="evenodd" d="M99.95 45.143c2.098-.569 4.575-1.761 7.039-4.035 2.696-2.491 4.291-3.804 5.183-4.44l.159-.245c-1.129.214-3.593.786-4.41 1.353-.328.224-.903.826-1.633 1.588-1.553 1.619-3.805 3.971-5.858 5.012z" fill="url(#at)"/><path fill-rule="evenodd" clip-rule="evenodd" d="M99.195 33.967c.225 1.276.512 2.176.764 2.965.519 1.625.888 2.78.265 5.768l-1.092 2.184-.065-.09c-.744-3.33-.276-8.312.128-10.827" fill="url(#au)"/><g filter="url(#av)"><path d="M98.395 47.28c-.285-.152-.206-.208-.966-.698-2.76-1.785-3.612-6.456-2.917-9.255l2.257 2.127c3.305 3.35 2.537 6.504 1.626 7.826" fill="url(#aw)"/><path fill-rule="evenodd" clip-rule="evenodd" d="m94.483 37.453.029-.127 2.257 2.13c3.305 3.348 2.537 6.5 1.626 7.825l-.03-.016c-.23-2.514-2.544-7.332-3.882-9.812" fill="url(#ax)"/></g><g filter="url(#ay)"><path d="M99.827 52.616c.843-.085 5.989.104 8.454.208-5.557 4.945-9.49 3.998-10.91 4.335-2.658.182-4.792.512-5.333.437l1.126-1.21c1.87-1.22 5.818-3.687 6.663-3.77" fill="url(#az)"/><path fill-rule="evenodd" clip-rule="evenodd" d="M108.194 52.9c-4.436 3.91-7.832 4.067-9.72 4.154-.458.02-.828.038-1.103.102-1.211.085-2.315.199-3.207.29-.904.095-1.594.165-1.962.16 2.948-2.136 11.252-3.916 15.992-4.706" fill="url(#aA)"/></g><path fill-rule="evenodd" clip-rule="evenodd" d="M85.904 66.06c3.926-1.335 11.995-3.655 16.987-5.051-2.713.126-8.289.426-9.152.624-1.085.248-6.559 3.268-7.335 3.946-.17.15-.34.315-.5.482" fill="url(#aB)"/><g filter="url(#aC)"><path d="M87.253 64.17c2.387-2.306 3.146-5.188 3.227-6.34l-1.509 1.14c-4.76 2.108-5.837 6.927-5.78 9.075.358-.332 1.677-1.57 4.062-3.875" fill="url(#aD)"/><path fill-rule="evenodd" clip-rule="evenodd" d="M90.477 57.86c-.717 1.753-2.597 4.403-6.791 8.19q-.258.95-.498 1.905l.001.09c.36-.332 1.678-1.571 4.065-3.875 2.364-2.287 3.13-5.14 3.223-6.31" fill="url(#aE)"/></g><path fill-rule="evenodd" clip-rule="evenodd" d="M84.264 67.516c3.245-1.347 9.703-1.214 13.06-.936-4.715 1.88-6.176 1.506-7.465 1.17-.61-.156-1.181-.303-2.041-.198-1.937.236-3.203.074-3.554-.037" fill="url(#aF)"/><path d="M107.18 20.35c-.295 3.074-1.855 11.807-5.361 20.407-2.517 6.17-3.26 8.643-10.11 18.418-1.622 2.31-6.082 7.918-10.966 11.85-2.846 2.734-11.268 9.025-22.186 12.33-3.14.962-10.345 2.84-14.05 2.639" stroke="#FADA81" stroke-width="1.117"/><g filter="url(#aG)"><path d="M79.028 70.488c.921-1.844 1.995-2.84 2.109-3.265-3.951 1.436-7.03 3.63-7.67 4.035-.511.322-1.825 4.062-2.419 5.89l6.07-3.583c1.502-1.885.818-.892 1.91-3.078" fill="url(#aH)"/><path fill-rule="evenodd" clip-rule="evenodd" d="m80.72 67.378.419-.155c-.046.17-.244.427-.522.794a15 15 0 0 0-1.589 2.47c-.55 1.105-.648 1.398-.805 1.66-.154.257-.362.486-1.106 1.418l-5.925 3.499c1.399-2.854 6.534-7.33 9.529-9.686" fill="url(#aI)"/></g><g filter="url(#aJ)"><path d="M82.136 75.006c1.894-.248 4.259 1.03 5.204 1.7-.12.575-4.057 1.69-6.01 2.178a51 51 0 0 0-3.246-.82c-1.58-.349-2.979-1.713-3.48-2.353 1.721-.132 5.637-.457 7.532-.705" fill="url(#aK)"/><path fill-rule="evenodd" clip-rule="evenodd" d="M74.974 76.135a6 6 0 0 1-.37-.424c1.721-.132 5.637-.457 7.532-.705 1.894-.248 4.259 1.03 5.204 1.7a.2.2 0 0 1-.017.049c-1.883.472-5.79.679-12.35-.62" fill="url(#aL)"/></g><g filter="url(#aM)"><path d="M67.119 80.378c1.617.474 4.724 3.375 6.076 4.766-4.568.577-4.145-.314-6.578-.834-1.945-.416-2.552-2.232-2.612-3.089.365-.48 1.498-1.319 3.114-.844" fill="url(#aN)"/><path fill-rule="evenodd" clip-rule="evenodd" d="M64.118 81.089c4.654 1.249 7.644 2.977 9.043 4.059-3.148.395-3.908.088-4.894-.31a9 9 0 0 0-1.648-.53 4 4 0 0 1-.46-.13l-.878-.495c-.904-.73-1.232-1.845-1.276-2.461q.049-.064.113-.133" fill="url(#aO)"/></g><g filter="url(#aP)"><path d="M59.434 25.053 30.48 36.309 18.486 63.481 30.48 90.654l28.954 11.256 28.954-11.256 11.995-27.173L88.388 36.31z" fill="url(#aQ)"/><path d="m59.465 63.57 28.998-27.214-17.208.449-11.79-11.663z" fill="url(#aR)"/><path d="M59.431 63.574h41.01L87.935 52.472l.452-16.072z" fill="url(#aS)"/><path d="M59.465 63.57 30.467 36.356l17.207.449 11.79-11.663z" fill="url(#aT)"/><path d="M59.498 63.574h-41.01l12.506-11.102-.45-16.072z" fill="url(#aU)"/><path d="M59.43 63.571 30.433 90.785l17.209-.448L59.431 102z" fill="url(#aV)"/><path d="M59.465 63.568h-41.01L30.961 74.67l-.452 16.072z" fill="url(#aW)"/><path d="M59.431 63.571 88.43 90.785l-17.207-.448L59.433 102z" fill="url(#aX)"/><path d="M59.399 63.568h41.008L87.901 74.67l.45 16.072z" fill="url(#aY)"/><path style="mix-blend-mode:hard-light" d="m59.434 44.044-14.646 5.694-6.067 13.744 6.067 13.747 14.646 5.692 14.646-5.692 6.067-13.747-6.067-13.744z" fill="url(#aZ)"/><path style="mix-blend-mode:hard-light" opacity=".3" d="m59.434 44.043 11.79-7.327 2.868 13.01 13.863 2.69-7.808 11.065 7.808 11.215-13.863 2.543-2.866 13.158-11.792-7.477-11.79 7.477-2.868-13.158-14.021-2.692 7.966-11.064-7.647-11.066 13.7-2.692 2.869-12.859z" fill="url(#ba)"/><path style="mix-blend-mode:hard-light" opacity=".6" d="M71.346 36.523 59.43 53.096 47.566 36.49l4.063 19.626-20.901-3.867L48.387 63.43 30.696 74.565l20.91-3.81-4.12 19.61 11.915-16.572L71.265 90.4l-4.06-19.625 20.899 3.867-17.66-11.18 17.694-11.136-20.913 3.811z" fill="url(#bb)"/><path style="mix-blend-mode:soft-light" opacity=".4" d="M80.147 63.482 59.434 44.044 38.721 63.482l20.713 19.439z" fill="url(#bc)"/><path d="m66.764 53.913-1.013.396-1.016.392-.418.953-.421.95.421.95.418.953 1.016.392 1.013.397 1.014-.397 1.013-.392.418-.953.423-.95-.423-.95-.418-.953-1.013-.392z" fill="#fff" fill-opacity=".59" style="mix-blend-mode:hard-light"/><path d="M73.202 40.307 69.6 41.738l-3.61 1.414-1.485 3.44-1.501 3.434 1.501 3.433 1.485 3.44 3.608 1.415 3.602 1.431 3.602-1.431 3.61-1.416 1.484-3.44 1.502-3.432-1.502-3.433-1.484-3.44-3.609-1.415z" fill="#fff" fill-opacity=".59" style="mix-blend-mode:hard-light" opacity=".1"/><path d="m64.532 57.203-.563.22-.563.217-.232.529-.234.528.234.528.232.529.563.218.563.22.563-.22.563-.218.234-.529.234-.528-.234-.528-.232-.529-.563-.218z" fill="#fff" fill-opacity=".87" style="mix-blend-mode:hard-light"/></g></g><defs><linearGradient id="b" x1="49.494" y1="78.257" x2="50.359" y2="82.973" gradientUnits="userSpaceOnUse"><stop stop-color="#D2AB68"/><stop offset="1" stop-color="#B67D3F"/></linearGradient><linearGradient id="c" x1="12.488" y1="30.626" x2="14.954" y2="44.073" gradientUnits="userSpaceOnUse"><stop stop-color="#D2AB68"/><stop offset="1" stop-color="#B67D3F"/></linearGradient><linearGradient id="d" x1="15.734" y1="22.066" x2="17.448" y2="31.415" gradientUnits="userSpaceOnUse"><stop stop-color="#D2AB68"/><stop offset="1" stop-color="#B67D3F"/></linearGradient><linearGradient id="e" x1="26.255" y1="58.969" x2="29.303" y2="57.426" gradientUnits="userSpaceOnUse"><stop stop-color="#D2AB68"/><stop offset="1" stop-color="#B67D3F"/></linearGradient><linearGradient id="f" x1="18.593" y1="26.759" x2="8.026" y2="23.596" gradientUnits="userSpaceOnUse"><stop stop-color="#D2AB68"/><stop offset="1" stop-color="#B67D3F"/></linearGradient><linearGradient id="g" x1="7.803" y1="22.232" x2="13.269" y2="31.076" gradientUnits="userSpaceOnUse"><stop stop-color="#F7E6B3"/><stop offset="1" stop-color="#F7E6B3" stop-opacity="0"/></linearGradient><linearGradient id="h" x1="32.403" y1="52.177" x2="35.412" y2="68.585" gradientUnits="userSpaceOnUse"><stop stop-color="#D2AB68"/><stop offset="1" stop-color="#B67D3F"/></linearGradient><linearGradient id="i" x1="32.028" y1="54.875" x2="40.694" y2="58.59" gradientUnits="userSpaceOnUse"><stop stop-color="#F7E6B3"/><stop offset="1" stop-color="#F7E6B3" stop-opacity="0"/></linearGradient><linearGradient id="j" x1="18.804" y1="47.216" x2="20.406" y2="55.941" gradientUnits="userSpaceOnUse"><stop stop-color="#D2AB68"/><stop offset="1" stop-color="#B67D3F"/></linearGradient><linearGradient id="k" x1="21.357" y1="50.698" x2="22.959" y2="55.501" gradientUnits="userSpaceOnUse"><stop stop-color="#C18E42"/><stop offset="1" stop-color="#D2AB68"/></linearGradient><linearGradient id="l" x1="12.11" y1="35.475" x2="14.133" y2="46.508" gradientUnits="userSpaceOnUse"><stop stop-color="#D2AB68"/><stop offset="1" stop-color="#8E573C"/></linearGradient><linearGradient id="m" x1="18.965" y1="34.146" x2="20.909" y2="44.746" gradientUnits="userSpaceOnUse"><stop stop-color="#D2AB68"/><stop offset="1" stop-color="#B67D3F"/></linearGradient><linearGradient id="n" x1="27.796" y1="64.835" x2="28.508" y2="68.722" gradientUnits="userSpaceOnUse"><stop stop-color="#D2AB68"/><stop offset="1" stop-color="#B67D3F"/></linearGradient><linearGradient id="o" x1="24.387" y1="59.533" x2="26.069" y2="68.692" gradientUnits="userSpaceOnUse"><stop stop-color="#C28766"/><stop offset="1" stop-color="#8E573C"/></linearGradient><linearGradient id="p" x1="44.8" y1="65.33" x2="46.996" y2="77.3" gradientUnits="userSpaceOnUse"><stop stop-color="#D2AB68"/><stop offset="1" stop-color="#B67D3F"/></linearGradient><linearGradient id="q" x1="37.497" y1="69.278" x2="38.887" y2="76.85" gradientUnits="userSpaceOnUse"><stop stop-color="#D2AB68"/><stop offset="1" stop-color="#B67D3F"/></linearGradient><linearGradient id="r" x1="37.76" y1="68.41" x2="39.395" y2="77.32" gradientUnits="userSpaceOnUse"><stop stop-color="#FADA81"/><stop offset="1" stop-color="#B67D3F"/></linearGradient><linearGradient id="s" x1="53.082" y1="82.52" x2="53.755" y2="86.196" gradientUnits="userSpaceOnUse"><stop stop-color="#D2AB68"/><stop offset="1" stop-color="#B67D3F"/></linearGradient><linearGradient id="t" x1="9.321" y1="7.218" x2="11.742" y2="20.413" gradientUnits="userSpaceOnUse"><stop stop-color="#FCF1D5"/><stop offset="1" stop-color="#EBCE6A"/></linearGradient><linearGradient id="u" x1="10.512" y1="7" x2="12.933" y2="20.196" gradientUnits="userSpaceOnUse"><stop stop-color="#D2AB68"/><stop offset="1" stop-color="#B67D3F"/></linearGradient><linearGradient id="w" x1="14.203" y1="17.951" x2="16.398" y2="29.92" gradientUnits="userSpaceOnUse"><stop stop-color="#D2AB68"/><stop offset="1" stop-color="#B67D3F"/></linearGradient><linearGradient id="x" x1="13.529" y1="19.993" x2="20.714" y2="26.544" gradientUnits="userSpaceOnUse"><stop stop-color="#F7E6B3"/><stop offset="1" stop-color="#F7E6B3" stop-opacity="0"/></linearGradient><linearGradient id="y" x1="11.739" y1="32.912" x2="18.372" y2="42.602" gradientUnits="userSpaceOnUse"><stop stop-color="#F7E6B3"/><stop offset="1" stop-color="#F7E6B3" stop-opacity="0"/></linearGradient><linearGradient id="z" x1="10.791" y1="37.422" x2="15.188" y2="46.815" gradientUnits="userSpaceOnUse"><stop stop-color="#F7E6B3"/><stop offset="1" stop-color="#F7E6B3" stop-opacity="0"/></linearGradient><linearGradient id="A" x1="18.624" y1="35.928" x2="23.494" y2="40.402" gradientUnits="userSpaceOnUse"><stop stop-color="#FFDD78"/><stop offset="1" stop-color="#FFF1C8" stop-opacity=".38"/></linearGradient><linearGradient id="C" x1="21.799" y1="37.87" x2="23.504" y2="47.172" gradientUnits="userSpaceOnUse"><stop stop-color="#D2AB68"/><stop offset="1" stop-color="#B67D3F"/></linearGradient><linearGradient id="D" x1="21.777" y1="37.727" x2="22.282" y2="47.462" gradientUnits="userSpaceOnUse"><stop stop-color="#FFDA92"/><stop offset="1" stop-color="#DCBA84"/></linearGradient><linearGradient id="F" x1="13.674" y1="52.333" x2="24.794" y2="57.395" gradientUnits="userSpaceOnUse"><stop stop-color="#F7E6B3"/><stop offset="1" stop-color="#BC8647"/></linearGradient><linearGradient id="G" x1="18.315" y1="51.575" x2="19.67" y2="58.965" gradientUnits="userSpaceOnUse"><stop stop-color="#D2AB68"/><stop offset="1" stop-color="#8E573C"/></linearGradient><linearGradient id="H" x1="21.923" y1="61.26" x2="24.323" y2="68.764" gradientUnits="userSpaceOnUse"><stop stop-color="#F7E6B3"/><stop offset="1" stop-color="#F7E6B3" stop-opacity="0"/></linearGradient><linearGradient id="J" x1="31.364" y1="57.358" x2="33.414" y2="68.536" gradientUnits="userSpaceOnUse"><stop stop-color="#D2AB68"/><stop offset="1" stop-color="#B67D3F"/></linearGradient><linearGradient id="K" x1="28.699" y1="57.728" x2="34.953" y2="68.04" gradientUnits="userSpaceOnUse"><stop stop-color="#E0C087"/><stop offset=".281" stop-color="#FFE49E"/><stop offset="1" stop-color="#753C1D"/></linearGradient><linearGradient id="L" x1="26.378" y1="66.464" x2="26.518" y2="70.04" gradientUnits="userSpaceOnUse"><stop stop-color="#B18253"/><stop offset="1" stop-color="#F7E6B3" stop-opacity="0"/></linearGradient><linearGradient id="N" x1="42.004" y1="66.513" x2="44.094" y2="77.908" gradientUnits="userSpaceOnUse"><stop stop-color="#D2AB68"/><stop offset="1" stop-color="#B67D3F"/></linearGradient><linearGradient id="O" x1="41.12" y1="68.484" x2="46.606" y2="77.66" gradientUnits="userSpaceOnUse"><stop stop-color="#F7E6B3"/><stop offset="1" stop-color="#F7E6B3" stop-opacity="0"/></linearGradient><linearGradient id="Q" x1="37.98" y1="74.647" x2="38.73" y2="78.739" gradientUnits="userSpaceOnUse"><stop stop-color="#D2AB68"/><stop offset="1" stop-color="#B67D3F"/></linearGradient><linearGradient id="R" x1="36.729" y1="74.933" x2="42.023" y2="76.915" gradientUnits="userSpaceOnUse"><stop stop-color="#FADA81"/><stop offset="1" stop-color="#9A5E33"/></linearGradient><linearGradient id="T" x1="50.166" y1="80.722" x2="50.954" y2="85.016" gradientUnits="userSpaceOnUse"><stop stop-color="#FADA81"/><stop offset="1" stop-color="#B67D3F"/></linearGradient><linearGradient id="U" x1="51.468" y1="81.672" x2="52.358" y2="86.527" gradientUnits="userSpaceOnUse"><stop stop-color="#D2AB68"/><stop offset="1" stop-color="#B67D3F"/></linearGradient><linearGradient id="V" x1="69.786" y1="78.257" x2="68.919" y2="82.973" gradientUnits="userSpaceOnUse"><stop stop-color="#D2AB68"/><stop offset="1" stop-color="#B67D3F"/></linearGradient><linearGradient id="W" x1="106.789" y1="30.626" x2="104.323" y2="44.073" gradientUnits="userSpaceOnUse"><stop stop-color="#D2AB68"/><stop offset="1" stop-color="#B67D3F"/></linearGradient><linearGradient id="X" x1="103.544" y1="22.066" x2="101.83" y2="31.415" gradientUnits="userSpaceOnUse"><stop stop-color="#D2AB68"/><stop offset="1" stop-color="#B67D3F"/></linearGradient><linearGradient id="Y" x1="93.022" y1="58.969" x2="89.974" y2="57.426" gradientUnits="userSpaceOnUse"><stop stop-color="#D2AB68"/><stop offset="1" stop-color="#B67D3F"/></linearGradient><linearGradient id="Z" x1="100.684" y1="26.759" x2="111.252" y2="23.596" gradientUnits="userSpaceOnUse"><stop stop-color="#D2AB68"/><stop offset="1" stop-color="#B67D3F"/></linearGradient><linearGradient id="aa" x1="111.476" y1="22.232" x2="106.009" y2="31.076" gradientUnits="userSpaceOnUse"><stop stop-color="#F7E6B3"/><stop offset="1" stop-color="#F7E6B3" stop-opacity="0"/></linearGradient><linearGradient id="ab" x1="86.876" y1="52.177" x2="83.865" y2="68.586" gradientUnits="userSpaceOnUse"><stop stop-color="#D2AB68"/><stop offset="1" stop-color="#B67D3F"/></linearGradient><linearGradient id="ac" x1="87.25" y1="54.875" x2="78.584" y2="58.59" gradientUnits="userSpaceOnUse"><stop stop-color="#F7E6B3"/><stop offset="1" stop-color="#F7E6B3" stop-opacity="0"/></linearGradient><linearGradient id="ad" x1="100.473" y1="47.216" x2="98.873" y2="55.941" gradientUnits="userSpaceOnUse"><stop stop-color="#D2AB68"/><stop offset="1" stop-color="#B67D3F"/></linearGradient><linearGradient id="ae" x1="97.922" y1="50.698" x2="96.319" y2="55.502" gradientUnits="userSpaceOnUse"><stop stop-color="#C18E42"/><stop offset="1" stop-color="#D2AB68"/></linearGradient><linearGradient id="af" x1="107.168" y1="35.475" x2="105.144" y2="46.508" gradientUnits="userSpaceOnUse"><stop stop-color="#D2AB68"/><stop offset="1" stop-color="#8E573C"/></linearGradient><linearGradient id="ag" x1="100.314" y1="34.146" x2="98.37" y2="44.746" gradientUnits="userSpaceOnUse"><stop stop-color="#D2AB68"/><stop offset="1" stop-color="#B67D3F"/></linearGradient><linearGradient id="ah" x1="91.481" y1="64.835" x2="90.769" y2="68.722" gradientUnits="userSpaceOnUse"><stop stop-color="#D2AB68"/><stop offset="1" stop-color="#B67D3F"/></linearGradient><linearGradient id="ai" x1="94.891" y1="59.533" x2="93.211" y2="68.692" gradientUnits="userSpaceOnUse"><stop stop-color="#C28766"/><stop offset="1" stop-color="#8E573C"/></linearGradient><linearGradient id="aj" x1="74.478" y1="65.33" x2="72.283" y2="77.3" gradientUnits="userSpaceOnUse"><stop stop-color="#D2AB68"/><stop offset="1" stop-color="#B67D3F"/></linearGradient><linearGradient id="ak" x1="81.78" y1="69.278" x2="80.391" y2="76.85" gradientUnits="userSpaceOnUse"><stop stop-color="#D2AB68"/><stop offset="1" stop-color="#B67D3F"/></linearGradient><linearGradient id="al" x1="81.517" y1="68.41" x2="79.883" y2="77.32" gradientUnits="userSpaceOnUse"><stop stop-color="#FADA81"/><stop offset="1" stop-color="#B67D3F"/></linearGradient><linearGradient id="am" x1="66.198" y1="82.52" x2="65.523" y2="86.196" gradientUnits="userSpaceOnUse"><stop stop-color="#D2AB68"/><stop offset="1" stop-color="#B67D3F"/></linearGradient><linearGradient id="an" x1="109.956" y1="7.218" x2="107.535" y2="20.413" gradientUnits="userSpaceOnUse"><stop stop-color="#FCF1D5"/><stop offset="1" stop-color="#EBCE6A"/></linearGradient><linearGradient id="ao" x1="108.765" y1="7" x2="106.344" y2="20.196" gradientUnits="userSpaceOnUse"><stop stop-color="#D2AB68"/><stop offset="1" stop-color="#B67D3F"/></linearGradient><linearGradient id="aq" x1="105.076" y1="17.951" x2="102.88" y2="29.92" gradientUnits="userSpaceOnUse"><stop stop-color="#D2AB68"/><stop offset="1" stop-color="#B67D3F"/></linearGradient><linearGradient id="ar" x1="105.749" y1="19.993" x2="98.564" y2="26.544" gradientUnits="userSpaceOnUse"><stop stop-color="#F7E6B3"/><stop offset="1" stop-color="#F7E6B3" stop-opacity="0"/></linearGradient><linearGradient id="as" x1="107.54" y1="32.912" x2="100.906" y2="42.602" gradientUnits="userSpaceOnUse"><stop stop-color="#F7E6B3"/><stop offset="1" stop-color="#F7E6B3" stop-opacity="0"/></linearGradient><linearGradient id="at" x1="108.487" y1="37.422" x2="104.089" y2="46.815" gradientUnits="userSpaceOnUse"><stop stop-color="#F7E6B3"/><stop offset="1" stop-color="#F7E6B3" stop-opacity="0"/></linearGradient><linearGradient id="au" x1="100.654" y1="35.928" x2="95.784" y2="40.402" gradientUnits="userSpaceOnUse"><stop stop-color="#FFDD78"/><stop offset="1" stop-color="#FFF1C8" stop-opacity=".38"/></linearGradient><linearGradient id="aw" x1="97.479" y1="37.87" x2="95.773" y2="47.172" gradientUnits="userSpaceOnUse"><stop stop-color="#D2AB68"/><stop offset="1" stop-color="#B67D3F"/></linearGradient><linearGradient id="ax" x1="97.503" y1="37.727" x2="96.998" y2="47.462" gradientUnits="userSpaceOnUse"><stop stop-color="#FFDA92"/><stop offset="1" stop-color="#DCBA84"/></linearGradient><linearGradient id="az" x1="105.604" y1="52.333" x2="94.485" y2="57.395" gradientUnits="userSpaceOnUse"><stop stop-color="#F7E6B3"/><stop offset="1" stop-color="#BC8647"/></linearGradient><linearGradient id="aA" x1="100.965" y1="51.575" x2="99.609" y2="58.965" gradientUnits="userSpaceOnUse"><stop stop-color="#D2AB68"/><stop offset="1" stop-color="#8E573C"/></linearGradient><linearGradient id="aB" x1="97.354" y1="61.26" x2="94.955" y2="68.764" gradientUnits="userSpaceOnUse"><stop stop-color="#F7E6B3"/><stop offset="1" stop-color="#F7E6B3" stop-opacity="0"/></linearGradient><linearGradient id="aD" x1="87.913" y1="57.358" x2="85.864" y2="68.536" gradientUnits="userSpaceOnUse"><stop stop-color="#D2AB68"/><stop offset="1" stop-color="#B67D3F"/></linearGradient><linearGradient id="aE" x1="90.579" y1="57.728" x2="84.325" y2="68.04" gradientUnits="userSpaceOnUse"><stop stop-color="#E0C087"/><stop offset=".281" stop-color="#FFE49E"/><stop offset="1" stop-color="#753C1D"/></linearGradient><linearGradient id="aF" x1="92.899" y1="66.464" x2="92.759" y2="70.04" gradientUnits="userSpaceOnUse"><stop stop-color="#B18253"/><stop offset="1" stop-color="#F7E6B3" stop-opacity="0"/></linearGradient><linearGradient id="aH" x1="77.274" y1="66.513" x2="75.185" y2="77.908" gradientUnits="userSpaceOnUse"><stop stop-color="#D2AB68"/><stop offset="1" stop-color="#B67D3F"/></linearGradient><linearGradient id="aI" x1="78.158" y1="68.484" x2="72.674" y2="77.66" gradientUnits="userSpaceOnUse"><stop stop-color="#F7E6B3"/><stop offset="1" stop-color="#F7E6B3" stop-opacity="0"/></linearGradient><linearGradient id="aK" x1="81.297" y1="74.647" x2="80.547" y2="78.739" gradientUnits="userSpaceOnUse"><stop stop-color="#D2AB68"/><stop offset="1" stop-color="#B67D3F"/></linearGradient><linearGradient id="aL" x1="82.547" y1="74.933" x2="77.255" y2="76.915" gradientUnits="userSpaceOnUse"><stop stop-color="#FADA81"/><stop offset="1" stop-color="#9A5E33"/></linearGradient><linearGradient id="aN" x1="69.112" y1="80.722" x2="68.325" y2="85.016" gradientUnits="userSpaceOnUse"><stop stop-color="#FADA81"/><stop offset="1" stop-color="#B67D3F"/></linearGradient><linearGradient id="aO" x1="67.81" y1="81.672" x2="66.919" y2="86.527" gradientUnits="userSpaceOnUse"><stop stop-color="#D2AB68"/><stop offset="1" stop-color="#B67D3F"/></linearGradient><linearGradient id="aQ" x1="87.317" y1="37.166" x2="41.02" y2="100.28" gradientUnits="userSpaceOnUse"><stop stop-color="#466CC6"/><stop offset="1" stop-color="#75D2F4"/></linearGradient><linearGradient id="aR" x1="73.964" y1="25.142" x2="62.509" y2="65.493" gradientUnits="userSpaceOnUse"><stop offset=".153" stop-color="#3D46F7"/><stop offset="1" stop-color="#35E3FB"/></linearGradient><linearGradient id="aS" x1="98.639" y1="46.022" x2="60.583" y2="67.738" gradientUnits="userSpaceOnUse"><stop offset=".153" stop-color="#2E35AC"/><stop offset="1" stop-color="#35D8FB"/></linearGradient><linearGradient id="aT" x1="56.725" y1="35.669" x2="41.346" y2="51.898" gradientUnits="userSpaceOnUse"><stop offset=".153" stop-color="#2251BD"/><stop offset="1" stop-color="#26A7F4"/></linearGradient><linearGradient id="aU" x1="37.447" y1="47.183" x2="36.182" y2="66.184" gradientUnits="userSpaceOnUse"><stop offset=".153" stop-color="#2E35AC"/><stop offset="1" stop-color="#359CFB"/></linearGradient><linearGradient id="aV" x1="37.121" y1="83.967" x2="61.499" y2="82.779" gradientUnits="userSpaceOnUse"><stop offset=".153" stop-color="#5DB9ED"/><stop offset="1" stop-color="#1A43AF"/></linearGradient><linearGradient id="aW" x1="28.322" y1="63.186" x2="45.308" y2="79.701" gradientUnits="userSpaceOnUse"><stop offset=".153" stop-color="#5DB9ED"/><stop offset="1" stop-color="#579BEB"/></linearGradient><linearGradient id="aX" x1="81.741" y1="83.967" x2="54.752" y2="79.23" gradientUnits="userSpaceOnUse"><stop offset=".153" stop-color="#2E35AC"/><stop offset="1" stop-color="#359CFB"/></linearGradient><linearGradient id="aY" x1="102.615" y1="64.676" x2="59.438" y2="60.98" gradientUnits="userSpaceOnUse"><stop offset=".153" stop-color="#2E35AC"/><stop offset="1" stop-color="#359CFB"/></linearGradient><linearGradient id="aZ" x1="73.539" y1="50.172" x2="50.12" y2="82.096" gradientUnits="userSpaceOnUse"><stop stop-color="#2F41B2"/><stop offset="1" stop-color="#89DFFF"/></linearGradient><linearGradient id="ba" x1="74.761" y1="61.906" x2="26.789" y2="65.207" gradientUnits="userSpaceOnUse"><stop offset=".153" stop-color="#5DB9ED"/><stop offset="1" stop-color="#579BEB"/></linearGradient><linearGradient id="bb" x1="87.119" y1="52.633" x2="34.955" y2="83.962" gradientUnits="userSpaceOnUse"><stop stop-color="#2A58C6"/><stop offset="1" stop-color="#4FF4FF"/></linearGradient><linearGradient id="bc" x1="48.6" y1="77.24" x2="69.482" y2="45.341" gradientUnits="userSpaceOnUse"><stop stop-color="#60F5FF"/><stop offset="1" stop-color="#fff" stop-opacity="0"/></linearGradient><filter id="v" x="11.684" y="17.676" width="6.969" height="17.059" filterUnits="userSpaceOnUse" color-interpolation-filters="sRGB"><feFlood flood-opacity="0" result="BackgroundImageFix"/><feColorMatrix in="SourceAlpha" values="0 0 0 0 0 0 0 0 0 0 0 0 0 0 0 0 0 0 127 0" result="hardAlpha"/><feOffset dy="2.951"/><feGaussianBlur stdDeviation=".738"/><feColorMatrix values="0 0 0 0 0.541667 0 0 0 0 0.336104 0 0 0 0 0.0947917 0 0 0 0.25 0"/><feBlend in2="BackgroundImageFix" result="effect1_dropShadow_1224_6"/><feBlend in="SourceGraphic" in2="effect1_dropShadow_1224_6" result="shape"/></filter><filter id="B" x="18.622" y="37.326" width="7.85" height="14.382" filterUnits="userSpaceOnUse" color-interpolation-filters="sRGB"><feFlood flood-opacity="0" result="BackgroundImageFix"/><feColorMatrix in="SourceAlpha" values="0 0 0 0 0 0 0 0 0 0 0 0 0 0 0 0 0 0 127 0" result="hardAlpha"/><feOffset dy="2.951"/><feGaussianBlur stdDeviation=".738"/><feColorMatrix values="0 0 0 0 0.541667 0 0 0 0 0.336104 0 0 0 0 0.0947917 0 0 0 0.25 0"/><feBlend in2="BackgroundImageFix" result="effect1_dropShadow_1224_6"/><feBlend in="SourceGraphic" in2="effect1_dropShadow_1224_6" result="shape"/></filter><filter id="E" x="10.997" y="52.595" width="20.67" height="9.439" filterUnits="userSpaceOnUse" color-interpolation-filters="sRGB"><feFlood flood-opacity="0" result="BackgroundImageFix"/><feColorMatrix in="SourceAlpha" values="0 0 0 0 0 0 0 0 0 0 0 0 0 0 0 0 0 0 127 0" result="hardAlpha"/><feOffset dx="2.951" dy="2.951"/><feGaussianBlur stdDeviation=".738"/><feColorMatrix values="0 0 0 0 0.541667 0 0 0 0 0.336104 0 0 0 0 0.0947917 0 0 0 0.25 0"/><feBlend in2="BackgroundImageFix" result="effect1_dropShadow_1224_6"/><feBlend in="SourceGraphic" in2="effect1_dropShadow_1224_6" result="shape"/></filter><filter id="I" x="27.322" y="57.829" width="10.245" height="14.643" filterUnits="userSpaceOnUse" color-interpolation-filters="sRGB"><feFlood flood-opacity="0" result="BackgroundImageFix"/><feColorMatrix in="SourceAlpha" values="0 0 0 0 0 0 0 0 0 0 0 0 0 0 0 0 0 0 127 0" result="hardAlpha"/><feOffset dy="2.951"/><feGaussianBlur stdDeviation=".738"/><feColorMatrix values="0 0 0 0 0.541667 0 0 0 0 0.336104 0 0 0 0 0.0947917 0 0 0 0.25 0"/><feBlend in2="BackgroundImageFix" result="effect1_dropShadow_1224_6"/><feBlend in="SourceGraphic" in2="effect1_dropShadow_1224_6" result="shape"/></filter><filter id="M" x="36.665" y="67.223" width="13.041" height="14.353" filterUnits="userSpaceOnUse" color-interpolation-filters="sRGB"><feFlood flood-opacity="0" result="BackgroundImageFix"/><feColorMatrix in="SourceAlpha" values="0 0 0 0 0 0 0 0 0 0 0 0 0 0 0 0 0 0 127 0" result="hardAlpha"/><feOffset dy="2.951"/><feGaussianBlur stdDeviation=".738"/><feColorMatrix values="0 0 0 0 0.541667 0 0 0 0 0.336104 0 0 0 0 0.0947917 0 0 0 0.25 0"/><feBlend in2="BackgroundImageFix" result="effect1_dropShadow_1224_6"/><feBlend in="SourceGraphic" in2="effect1_dropShadow_1224_6" result="shape"/></filter><filter id="P" x="31.937" y="74.975" width="17.165" height="8.336" filterUnits="userSpaceOnUse" color-interpolation-filters="sRGB"><feFlood flood-opacity="0" result="BackgroundImageFix"/><feColorMatrix in="SourceAlpha" values="0 0 0 0 0 0 0 0 0 0 0 0 0 0 0 0 0 0 127 0" result="hardAlpha"/><feOffset dx="2.951" dy="2.951"/><feGaussianBlur stdDeviation=".738"/><feColorMatrix values="0 0 0 0 0.541667 0 0 0 0 0.336104 0 0 0 0 0.0947917 0 0 0 0.25 0"/><feBlend in2="BackgroundImageFix" result="effect1_dropShadow_1224_6"/><feBlend in="SourceGraphic" in2="effect1_dropShadow_1224_6" result="shape"/></filter><filter id="S" x="44.607" y="80.236" width="12.142" height="9.523" filterUnits="userSpaceOnUse" color-interpolation-filters="sRGB"><feFlood flood-opacity="0" result="BackgroundImageFix"/><feColorMatrix in="SourceAlpha" values="0 0 0 0 0 0 0 0 0 0 0 0 0 0 0 0 0 0 127 0" result="hardAlpha"/><feOffset dy="2.951"/><feGaussianBlur stdDeviation=".738"/><feColorMatrix values="0 0 0 0 0.541667 0 0 0 0 0.336104 0 0 0 0 0.0947917 0 0 0 0.25 0"/><feBlend in2="BackgroundImageFix" result="effect1_dropShadow_1224_6"/><feBlend in="SourceGraphic" in2="effect1_dropShadow_1224_6" result="shape"/></filter><filter id="ap" x="100.625" y="17.676" width="6.969" height="17.059" filterUnits="userSpaceOnUse" color-interpolation-filters="sRGB"><feFlood flood-opacity="0" result="BackgroundImageFix"/><feColorMatrix in="SourceAlpha" values="0 0 0 0 0 0 0 0 0 0 0 0 0 0 0 0 0 0 127 0" result="hardAlpha"/><feOffset dy="2.951"/><feGaussianBlur stdDeviation=".738"/><feColorMatrix values="0 0 0 0 0.541667 0 0 0 0 0.336104 0 0 0 0 0.0947917 0 0 0 0.25 0"/><feBlend in2="BackgroundImageFix" result="effect1_dropShadow_1224_6"/><feBlend in="SourceGraphic" in2="effect1_dropShadow_1224_6" result="shape"/></filter><filter id="av" x="92.806" y="37.326" width="7.85" height="14.382" filterUnits="userSpaceOnUse" color-interpolation-filters="sRGB"><feFlood flood-opacity="0" result="BackgroundImageFix"/><feColorMatrix in="SourceAlpha" values="0 0 0 0 0 0 0 0 0 0 0 0 0 0 0 0 0 0 127 0" result="hardAlpha"/><feOffset dy="2.951"/><feGaussianBlur stdDeviation=".738"/><feColorMatrix values="0 0 0 0 0.541667 0 0 0 0 0.336104 0 0 0 0 0.0947917 0 0 0 0.25 0"/><feBlend in2="BackgroundImageFix" result="effect1_dropShadow_1224_6"/><feBlend in="SourceGraphic" in2="effect1_dropShadow_1224_6" result="shape"/></filter><filter id="ay" x="92.038" y="52.595" width="20.67" height="9.439" filterUnits="userSpaceOnUse" color-interpolation-filters="sRGB"><feFlood flood-opacity="0" result="BackgroundImageFix"/><feColorMatrix in="SourceAlpha" values="0 0 0 0 0 0 0 0 0 0 0 0 0 0 0 0 0 0 127 0" result="hardAlpha"/><feOffset dx="2.951" dy="2.951"/><feGaussianBlur stdDeviation=".738"/><feColorMatrix values="0 0 0 0 0.541667 0 0 0 0 0.336104 0 0 0 0 0.0947917 0 0 0 0.25 0"/><feBlend in2="BackgroundImageFix" result="effect1_dropShadow_1224_6"/><feBlend in="SourceGraphic" in2="effect1_dropShadow_1224_6" result="shape"/></filter><filter id="aC" x="81.712" y="57.829" width="10.244" height="14.643" filterUnits="userSpaceOnUse" color-interpolation-filters="sRGB"><feFlood flood-opacity="0" result="BackgroundImageFix"/><feColorMatrix in="SourceAlpha" values="0 0 0 0 0 0 0 0 0 0 0 0 0 0 0 0 0 0 127 0" result="hardAlpha"/><feOffset dy="2.951"/><feGaussianBlur stdDeviation=".738"/><feColorMatrix values="0 0 0 0 0.541667 0 0 0 0 0.336104 0 0 0 0 0.0947917 0 0 0 0.25 0"/><feBlend in2="BackgroundImageFix" result="effect1_dropShadow_1224_6"/><feBlend in="SourceGraphic" in2="effect1_dropShadow_1224_6" result="shape"/></filter><filter id="aG" x="69.572" y="67.223" width="13.042" height="14.353" filterUnits="userSpaceOnUse" color-interpolation-filters="sRGB"><feFlood flood-opacity="0" result="BackgroundImageFix"/><feColorMatrix in="SourceAlpha" values="0 0 0 0 0 0 0 0 0 0 0 0 0 0 0 0 0 0 127 0" result="hardAlpha"/><feOffset dy="2.951"/><feGaussianBlur stdDeviation=".738"/><feColorMatrix values="0 0 0 0 0.541667 0 0 0 0 0.336104 0 0 0 0 0.0947917 0 0 0 0.25 0"/><feBlend in2="BackgroundImageFix" result="effect1_dropShadow_1224_6"/><feBlend in="SourceGraphic" in2="effect1_dropShadow_1224_6" result="shape"/></filter><filter id="aJ" x="74.603" y="74.975" width="17.164" height="8.336" filterUnits="userSpaceOnUse" color-interpolation-filters="sRGB"><feFlood flood-opacity="0" result="BackgroundImageFix"/><feColorMatrix in="SourceAlpha" values="0 0 0 0 0 0 0 0 0 0 0 0 0 0 0 0 0 0 127 0" result="hardAlpha"/><feOffset dx="2.951" dy="2.951"/><feGaussianBlur stdDeviation=".738"/><feColorMatrix values="0 0 0 0 0.541667 0 0 0 0 0.336104 0 0 0 0 0.0947917 0 0 0 0.25 0"/><feBlend in2="BackgroundImageFix" result="effect1_dropShadow_1224_6"/><feBlend in="SourceGraphic" in2="effect1_dropShadow_1224_6" result="shape"/></filter><filter id="aM" x="62.529" y="80.236" width="12.142" height="9.523" filterUnits="userSpaceOnUse" color-interpolation-filters="sRGB"><feFlood flood-opacity="0" result="BackgroundImageFix"/><feColorMatrix in="SourceAlpha" values="0 0 0 0 0 0 0 0 0 0 0 0 0 0 0 0 0 0 127 0" result="hardAlpha"/><feOffset dy="2.951"/><feGaussianBlur stdDeviation=".738"/><feColorMatrix values="0 0 0 0 0.541667 0 0 0 0 0.336104 0 0 0 0 0.0947917 0 0 0 0.25 0"/><feBlend in2="BackgroundImageFix" result="effect1_dropShadow_1224_6"/><feBlend in="SourceGraphic" in2="effect1_dropShadow_1224_6" result="shape"/></filter><filter id="aP" x="-21.545" y="-14.947" width="161.986" height="156.947" filterUnits="userSpaceOnUse" color-interpolation-filters="sRGB"><feFlood flood-opacity="0" result="BackgroundImageFix"/><feColorMatrix in="SourceAlpha" values="0 0 0 0 0 0 0 0 0 0 0 0 0 0 0 0 0 0 127 0" result="hardAlpha"/><feOffset/><feGaussianBlur stdDeviation="20"/><feComposite in2="hardAlpha" operator="out"/><feColorMatrix values="0 0 0 0 0.164706 0 0 0 0 0.345098 0 0 0 0 0.776471 0 0 0 1 0"/><feBlend in2="BackgroundImageFix" result="effect1_dropShadow_1224_6"/><feBlend in="SourceGraphic" in2="effect1_dropShadow_1224_6" result="shape"/></filter><clipPath id="a"><path fill="#fff" d="M0 0h120v120H0z"/></clipPath></defs></svg>