<svg width="29" height="28" viewBox="0 0 29 28" fill="none" xmlns="http://www.w3.org/2000/svg">
<path d="M11.11 21.5037L12.6724 23.0662L11.1995 24.5391L8.4004 21.7399L8.31201 21.6516L8.22363 21.7399L5.01151 24.9521L3.53861 23.4792L6.75075 20.2659L6.83913 20.1775L6.75072 20.0891L3.95164 17.2912L5.42454 15.8182L6.98582 17.3784L7.07424 17.4668L7.1626 17.3784L8.7227 15.8172L12.6701 19.7657L11.1099 21.327L11.0216 21.4154L11.11 21.5037ZM22.0119 17.3796L23.5743 15.8182L25.0484 17.2912L22.2493 20.0903L22.1609 20.1787L22.2493 20.267L25.4602 23.4792L23.9873 24.9521L20.7752 21.7399L20.6868 21.6515L20.5984 21.74L17.8005 24.5391L16.3265 23.0661L17.8878 21.5037L17.9761 21.4153L17.8877 21.3269L4.12732 7.56769L4.12508 3.62511L8.08519 3.62846L21.8351 17.3796L21.9235 17.4679L22.0119 17.3796ZM16.3253 8.21683L20.9182 3.62504L24.8751 3.62839L24.8773 7.56191L20.2738 12.1642L16.3253 8.21683Z" fill="url(#paint0_linear_12_10)" stroke="url(#paint1_linear_12_10)" stroke-width="0.25"/>
<defs>
<linearGradient id="paint0_linear_12_10" x1="9.78737" y1="8.23131" x2="26.77" y2="14.246" gradientUnits="userSpaceOnUse">
<stop stop-color="#917FFB"/>
<stop offset="1" stop-color="#3F2DAF"/>
</linearGradient>
<linearGradient id="paint1_linear_12_10" x1="18.5833" y1="14" x2="24.4167" y2="25.0833" gradientUnits="userSpaceOnUse">
<stop offset="0.06656" stop-color="#8B81F8"/>
<stop offset="0.989746" stop-color="#ABABFC"/>
</linearGradient>
</defs>
</svg>
