<svg width="85" height="28" viewBox="0 0 85 28" fill="none" xmlns="http://www.w3.org/2000/svg">
<path d="M11.1099 21.5037L12.6724 23.0662L11.1995 24.5391L8.40039 21.7399L8.312 21.6516L8.22361 21.7399L5.0115 24.9521L3.53859 23.4792L6.75074 20.2659L6.83911 20.1775L6.7507 20.0891L3.95163 17.2912L5.42453 15.8182L6.98581 17.3784L7.07423 17.4668L7.16259 17.3784L8.72268 15.8172L12.6701 19.7657L11.1099 21.327L11.0216 21.4154L11.1099 21.5037ZM22.0119 17.3796L23.5743 15.8182L25.0484 17.2912L22.2493 20.0903L22.1609 20.1787L22.2493 20.267L25.4602 23.4792L23.9873 24.9521L20.7752 21.7399L20.6868 21.6515L20.5984 21.74L17.8005 24.5391L16.3264 23.0661L17.8878 21.5037L17.9761 21.4153L17.8877 21.3269L4.1273 7.56769L4.12507 3.62511L8.08518 3.62846L21.8351 17.3796L21.9235 17.4679L22.0119 17.3796ZM16.3253 8.21683L20.9182 3.62504L24.8751 3.62839L24.8773 7.56191L20.2738 12.1642L16.3253 8.21683Z" fill="url(#paint0_linear_174_1047)" stroke="url(#paint1_linear_174_1047)" stroke-width="0.25"/>
<path d="M33.218 24.8727V2.18182H37.9122C39.6234 2.18182 40.862 2.55528 41.6278 3.30219C42.3936 4.03964 42.7907 5.264 42.8191 6.97528C42.8474 8.53528 42.8664 10.0149 42.8758 11.4142C42.8853 12.8135 42.8853 14.2175 42.8758 15.6262C42.8664 17.0255 42.8474 18.5051 42.8191 20.0651C42.7907 21.7764 42.3936 23.0055 41.6278 23.7524C40.862 24.4993 39.6187 24.8727 37.898 24.8727H33.218ZM36.2813 22.1498H37.898C38.522 22.1498 38.9853 22.008 39.2878 21.7244C39.5904 21.4313 39.7464 20.9916 39.7558 20.4055C39.7842 19.252 39.8031 18.1033 39.8125 16.9593C39.822 15.8058 39.8267 14.6571 39.8267 13.5131C39.8267 12.3691 39.822 11.2251 39.8125 10.0811C39.8031 8.92764 39.7842 7.77419 39.7558 6.62073C39.7464 6.04401 39.5904 5.61382 39.2878 5.33019C38.9853 5.04655 38.5267 4.90473 37.9122 4.90473H36.2813V22.1498Z" fill="white"/>
<path d="M44.0647 24.8727V2.18182H52.1625V4.90473H47.128V12.024H51.8789V14.7469H47.128V22.1498H52.1625V24.8727H44.0647Z" fill="white"/>
<path d="M55.2022 24.8727L53.3444 2.18182H56.436L57.06 11.6411L57.5705 22.1498H58.2654L58.5491 11.6411L59.9247 2.32364H64.2644L65.6542 11.6411L65.8953 22.1498H66.576L67.1149 11.6411L67.7389 2.18182H70.8164L68.9585 24.8727H63.7822L62.9313 17.9804L62.4491 4.94728H61.7258L61.2294 17.9804L60.3785 24.8727H55.2022Z" fill="white"/>
<path d="M71.9982 24.8727V2.18182H75.0615V22.1498L84.5 22.2727V24.8727H71.9982Z" fill="white"/>
<path d="M79.2678 21.0909V19.2945C78.4114 19.1822 77.7914 18.8828 77.4077 18.3963C77.0309 17.9098 76.8219 17.1925 76.7808 16.2444C76.774 15.9512 76.7671 15.6674 76.7603 15.3929C76.7603 15.1122 76.7637 14.8315 76.7706 14.5509C76.7843 14.2702 76.8048 13.9832 76.8322 13.6901H78.9287C78.9013 14.1891 78.8841 14.6881 78.8773 15.1871C78.8773 15.6861 78.8944 16.157 78.9287 16.5999C78.9561 16.9679 79.076 17.2424 79.2883 17.4232C79.5007 17.5979 79.8262 17.6852 80.2646 17.6852C80.6963 17.6852 81.008 17.5979 81.1998 17.4232C81.3916 17.2424 81.5081 16.9679 81.5492 16.5999C81.5698 16.3192 81.5835 16.0572 81.5903 15.814C81.5972 15.5707 81.5972 15.3243 81.5903 15.0748C81.5835 14.8253 81.5698 14.5509 81.5492 14.2515C81.5218 13.8834 81.4396 13.5684 81.3026 13.3065C81.1656 13.0445 80.9155 12.8698 80.5524 12.7825L79.1753 12.4644C78.5587 12.3209 78.0757 12.112 77.7263 11.8375C77.3769 11.5568 77.1268 11.2013 76.9761 10.7709C76.8254 10.3405 76.7397 9.82593 76.7192 9.22712C76.7123 8.89029 76.7089 8.54723 76.7089 8.19793C76.7158 7.84863 76.7226 7.50244 76.7295 7.15938C76.7706 6.21127 76.9795 5.50019 77.3563 5.02614C77.74 4.54585 78.3771 4.24957 79.2678 4.13729V2.18182H81.2204V4.13729C82.0562 4.24957 82.6694 4.54897 83.0599 5.0355C83.4504 5.51579 83.6662 6.22687 83.7073 7.16874C83.721 7.47437 83.7244 7.85174 83.7176 8.30085C83.7107 8.74371 83.697 9.18658 83.6765 9.62944H81.5389C81.5595 9.16163 81.5698 8.69381 81.5698 8.226C81.5766 7.75194 81.5698 7.28101 81.5492 6.81319C81.5424 6.45142 81.4293 6.1832 81.2101 6.00855C80.9909 5.82766 80.6723 5.73722 80.2544 5.73722C79.8159 5.73722 79.4973 5.82766 79.2986 6.00855C79.0999 6.1832 78.9835 6.45142 78.9492 6.81319C78.915 7.2124 78.8978 7.61472 78.8978 8.02016C78.9047 8.4256 78.9218 8.82792 78.9492 9.22712C78.9766 9.62632 79.0623 9.94756 79.2061 10.1908C79.35 10.4341 79.6103 10.5994 79.9872 10.6867L81.2306 10.958C81.8815 11.0953 82.3885 11.3105 82.7516 11.6036C83.1147 11.8905 83.3716 12.2554 83.5223 12.6983C83.6731 13.1349 83.7587 13.6527 83.7793 14.2515C83.793 14.5134 83.7998 14.7505 83.7998 14.9625C83.7998 15.1746 83.7964 15.3836 83.7895 15.5894C83.7827 15.789 83.7758 16.0073 83.769 16.2444C83.7279 17.1987 83.5121 17.9222 83.1215 18.415C82.731 18.9015 82.0973 19.2009 81.2204 19.3132V21.0909H79.2678Z" fill="white"/>
<defs>
<linearGradient id="paint0_linear_174_1047" x1="9.78736" y1="8.23131" x2="26.7699" y2="14.246" gradientUnits="userSpaceOnUse">
<stop stop-color="#917FFB"/>
<stop offset="1" stop-color="#3F2DAF"/>
</linearGradient>
<linearGradient id="paint1_linear_174_1047" x1="18.5833" y1="14" x2="24.4167" y2="25.0833" gradientUnits="userSpaceOnUse">
<stop offset="0.06656" stop-color="#8B81F8"/>
<stop offset="0.989746" stop-color="#ABABFC"/>
</linearGradient>
</defs>
</svg>
